<svg width="432" height="381" viewBox="0 0 432 381" fill="none" xmlns="http://www.w3.org/2000/svg">
<path d="M115.801 76.691C106.162 82.4018 96.2469 87.5342 86.5362 93.2691C41.826 119.437 5.03131 154.521 0.513297 208.267C-2.78786 247.616 9.60955 293.399 44.2235 316.17C52.7691 321.767 62.3054 325.681 72.3195 327.7C86.4398 330.579 101.391 329.446 115.801 328.615V76.691Z" fill="#AB8AF1"/>
<path d="M323.352 20.728H184.547C175.609 26.3031 167.229 32.7262 159.523 39.9084H350.291C341.883 32.7488 332.869 26.3313 323.352 20.728Z" fill="#AB8AF1"/>
<path d="M316.858 17.1136C306.803 11.7409 296.2 7.46347 285.232 4.35471C252.04 -4.93432 219.161 1.24631 190.703 17.1136H316.858Z" fill="#AB8AF1"/>
<path d="M398.231 96.0522C386.187 76.5613 371.443 58.8756 354.436 43.5228H225.787V345.506C235.394 348.722 245.229 351.21 255.208 352.952C320.798 363.458 394.182 340.097 419.628 273.989C442.435 214.749 431.098 148.798 398.231 96.0522Z" fill="#AB8AF1"/>
<path d="M217.896 43.5228H155.74C153.178 46.0529 150.68 48.6633 148.246 51.354C140.998 59.2315 132.742 66.1182 123.692 71.8357V328.23C146.179 327.373 168.677 329.603 190.559 334.856C199.824 337.073 208.86 340.037 217.896 342.976V43.5228Z" fill="#AB8AF1"/>
<g opacity="0.8">
<path opacity="0.8" d="M115.801 76.691C106.162 82.4018 96.2469 87.5342 86.5362 93.2691C41.826 119.437 5.03131 154.521 0.513297 208.267C-2.78786 247.616 9.60955 293.399 44.2235 316.17C52.7691 321.767 62.3054 325.681 72.3195 327.7C86.4398 330.579 101.391 329.446 115.801 328.615V76.691Z" fill="white"/>
<path opacity="0.8" d="M323.352 20.728H184.547C175.609 26.3031 167.229 32.7262 159.523 39.9084H350.291C341.883 32.7488 332.869 26.3313 323.352 20.728Z" fill="white"/>
<path opacity="0.8" d="M316.858 17.1136C306.803 11.7409 296.2 7.46347 285.232 4.35471C252.04 -4.93432 219.161 1.24631 190.703 17.1136H316.858Z" fill="white"/>
<path opacity="0.8" d="M398.231 96.0522C386.187 76.5613 371.443 58.8756 354.436 43.5228H225.787V345.506C235.394 348.721 245.229 351.21 255.208 352.952C320.798 363.458 394.182 340.097 419.628 273.989C442.435 214.749 431.098 148.798 398.231 96.0522Z" fill="white"/>
<path opacity="0.8" d="M217.896 43.5228H155.74C153.178 46.0529 150.68 48.6633 148.246 51.354C140.998 59.2315 132.742 66.1182 123.692 71.8357V328.23C146.179 327.373 168.677 329.603 190.559 334.856C199.824 337.073 208.86 340.037 217.896 342.976V43.5228Z" fill="white"/>
</g>
<path d="M213.125 381C310.931 381 390.219 375.703 390.219 369.169C390.219 362.635 310.931 357.338 213.125 357.338C115.318 357.338 36.0308 362.635 36.0308 369.169C36.0308 375.703 115.318 381 213.125 381Z" fill="#AB8AF1"/>
<path opacity="0.5" d="M213.125 381C310.931 381 390.219 375.703 390.219 369.169C390.219 362.635 310.931 357.338 213.125 357.338C115.318 357.338 36.0308 362.635 36.0308 369.169C36.0308 375.703 115.318 381 213.125 381Z" fill="white"/>
<path d="M172.258 53.8239H155.306V57.5226V79.2452V82.944H191.258V57.5226H173.463L172.258 53.8239Z" fill="#AB8AF1"/>
<path d="M172.258 109.245H155.306V112.944V134.666V138.365H191.258V112.944H173.463L172.258 109.245Z" fill="#AB8AF1"/>
<path d="M172.258 164.666H155.306V168.364V190.087V193.786H191.258V168.364H173.463L172.258 164.666Z" fill="#AB8AF1"/>
<path d="M172.258 220.087H155.306V223.785V245.508V249.207H191.258V223.785H173.463L172.258 220.087Z" fill="#AB8AF1"/>
<path d="M172.258 275.507H155.306V279.206V300.929V304.628H191.258V279.206H173.463L172.258 275.507Z" fill="#AB8AF1"/>
<path d="M280.883 53.8239H263.943V57.5226V79.2452V82.944H299.882V57.5226H282.088L280.883 53.8239Z" fill="#AB8AF1"/>
<path d="M351.364 57.5226L350.159 53.8239H333.219V57.5226V79.2452V82.944H369.159V57.5226H351.364Z" fill="#AB8AF1"/>
<path d="M280.883 109.245H263.943V112.944V134.666V138.365H299.882V112.944H282.088L280.883 109.245Z" fill="#AB8AF1"/>
<path d="M350.159 164.666H333.219V168.364V190.087V193.786H369.159V168.364H351.364L350.159 164.666Z" fill="#AB8AF1"/>
<path d="M350.159 109.245H333.219V112.944V134.666V138.365H369.159V112.944H351.364L350.159 109.245Z" fill="#AB8AF1"/>
<path d="M280.883 164.666H263.943V168.364V190.087V193.786H299.882V168.364H282.088L280.883 164.666Z" fill="#AB8AF1"/>
<path d="M280.883 220.087H263.943V223.785V245.508V249.207H299.882V223.785H282.088L280.883 220.087Z" fill="#AB8AF1"/>
<path d="M350.159 220.087H333.219V223.785V245.508V249.207H369.159V223.785H351.364L350.159 220.087Z" fill="#AB8AF1"/>
<path d="M280.883 275.507H263.943V279.206V300.929V304.628H299.882V279.206H282.088L280.883 275.507Z" fill="#AB8AF1"/>
<path d="M350.159 275.507H333.219V279.206V300.929V304.628H369.159V279.206H351.364L350.159 275.507Z" fill="#AB8AF1"/>
<g opacity="0.5">
<path opacity="0.5" d="M172.258 53.8239H155.306V57.5226V79.2452V82.944H191.258V57.5226H173.463L172.258 53.8239Z" fill="white"/>
<path opacity="0.5" d="M172.258 109.245H155.306V112.944V134.666V138.365H191.258V112.944H173.463L172.258 109.245Z" fill="white"/>
<path opacity="0.5" d="M172.258 164.666H155.306V168.364V190.087V193.786H191.258V168.364H173.463L172.258 164.666Z" fill="white"/>
<path opacity="0.5" d="M172.258 220.087H155.306V223.785V245.508V249.207H191.258V223.785H173.463L172.258 220.087Z" fill="white"/>
<path opacity="0.5" d="M172.258 275.507H155.306V279.206V300.929V304.628H191.258V279.206H173.463L172.258 275.507Z" fill="white"/>
<path opacity="0.5" d="M280.883 53.8239H263.943V57.5226V79.2452V82.944H299.882V57.5226H282.088L280.883 53.8239Z" fill="white"/>
<path opacity="0.5" d="M351.364 57.5226L350.159 53.8239H333.219V57.5226V79.2452V82.944H369.159V57.5226H351.364Z" fill="white"/>
<path opacity="0.5" d="M280.883 109.245H263.943V112.944V134.666V138.365H299.882V112.944H282.088L280.883 109.245Z" fill="white"/>
<path opacity="0.5" d="M350.159 164.666H333.219V168.364V190.087V193.786H369.159V168.364H351.364L350.159 164.666Z" fill="white"/>
<path opacity="0.5" d="M350.159 109.245H333.219V112.944V134.666V138.365H369.159V112.944H351.364L350.159 109.245Z" fill="white"/>
<path opacity="0.5" d="M280.883 164.666H263.943V168.364V190.087V193.786H299.882V168.364H282.088L280.883 164.666Z" fill="white"/>
<path opacity="0.5" d="M280.883 220.087H263.943V223.785V245.508V249.207H299.882V223.785H282.088L280.883 220.087Z" fill="white"/>
<path opacity="0.5" d="M350.159 220.087H333.219V223.785V245.508V249.207H369.159V223.785H351.364L350.159 220.087Z" fill="white"/>
<path opacity="0.5" d="M280.883 275.507H263.943V279.206V300.929V304.628H299.882V279.206H282.088L280.883 275.507Z" fill="white"/>
<path opacity="0.5" d="M350.159 275.507H333.219V279.206V300.929V304.628H369.159V279.206H351.364L350.159 275.507Z" fill="white"/>
</g>
<path d="M77.1146 136.666C77.1146 136.666 76.0303 144.1 79.6206 149.184C83.2109 154.268 109.403 175.569 111.741 176.798C114.078 178.027 124.126 175.4 121.09 167.28C118.054 159.16 95.9939 141.979 91.5722 137.329C87.1506 132.678 83.0302 133.353 83.0302 133.353" fill="#AB8AF1"/>
<path d="M77.1146 136.666C77.1146 136.666 76.0303 144.1 79.6206 149.184C83.2109 154.268 109.403 175.569 111.741 176.798C114.078 178.027 124.126 175.4 121.09 167.28C118.054 159.16 95.9939 141.979 91.5722 137.329C87.1506 132.678 83.0302 133.353 83.0302 133.353" stroke="#263238" stroke-miterlimit="10"/>
<path d="M117.174 163.774C117.174 163.774 122.198 164.124 131.524 163.774C140.849 163.425 164.174 164.846 167.764 164.846H171.378L171.029 173.099C171.029 173.099 153.439 174.533 141.246 176.328C129.054 178.123 119.006 180.28 108.958 175.256" fill="#AB8AF1"/>
<path d="M117.174 163.774C117.174 163.774 122.198 164.124 131.524 163.774C140.849 163.425 164.174 164.846 167.764 164.846H171.378L171.029 173.099C171.029 173.099 153.439 174.533 141.246 176.328C129.054 178.123 119.006 180.28 108.958 175.256" stroke="#263238" stroke-linecap="round" stroke-linejoin="round"/>
<path d="M171.342 164.846L171.969 163.389C172.96 161.073 174.643 159.12 176.788 157.798C178.677 157.246 180.481 156.435 182.149 155.389L182.45 155.208C182.45 155.208 184.691 155.859 183.378 157.618C183.048 158.129 182.589 158.545 182.048 158.824C181.507 159.103 180.902 159.236 180.294 159.208L178.499 162.075L190.848 163.075C190.848 163.075 192.631 163.786 191.197 164.858C189.764 165.931 182.764 165.666 182.764 165.666L191.667 167.232C191.667 167.232 192.679 168.244 192.245 169.099C191.812 169.955 182.475 168.81 182.475 168.81L190.378 170.967C190.7 171.211 190.931 171.556 191.033 171.947C191.136 172.338 191.105 172.752 190.944 173.123C190.667 173.846 188.944 173.557 188.221 173.268C187.499 172.979 182.33 172.123 182.33 172.123L188.077 175.28C188.02 175.621 187.881 175.944 187.671 176.219C187.461 176.494 187.186 176.714 186.872 176.858C186.025 177.095 185.129 177.095 184.282 176.858L176.812 173.846C176.812 173.846 176.414 174.846 170.872 173.196L171.342 164.846Z" fill="white" stroke="#263238" stroke-linecap="round" stroke-linejoin="round"/>
<path d="M178.523 161.979C178.523 161.979 179.234 167.28 176.499 168.292L178.523 161.979Z" fill="white"/>
<path d="M178.523 161.979C178.523 161.979 179.234 167.28 176.499 168.292" stroke="#263238" stroke-linecap="round" stroke-linejoin="round"/>
<path d="M344.014 139.919C344.014 139.919 343.557 147.413 339.002 151.666C334.448 155.919 304.473 171.413 301.931 172.148C299.389 172.882 290.087 168.256 294.702 160.931C299.316 153.606 324.436 141.293 329.713 137.618C334.99 133.943 338.882 135.461 338.882 135.461" fill="#AB8AF1"/>
<path d="M344.014 139.919C344.014 139.919 343.557 147.413 339.002 151.666C334.448 155.919 304.473 171.413 301.931 172.148C299.389 172.882 290.087 168.256 294.702 160.931C299.316 153.606 324.436 141.293 329.713 137.618C334.99 133.943 338.882 135.461 338.882 135.461" stroke="#263238" stroke-miterlimit="10"/>
<path d="M299.22 158.292C299.22 158.292 294.232 157.618 285.172 155.365C276.112 153.112 252.992 149.762 249.474 149.027L245.968 148.292L244.63 156.449C244.63 156.449 261.498 161.437 273.124 165.69C284.75 169.943 294.099 174.123 304.955 171.22" fill="#AB8AF1"/>
<path d="M299.22 158.292C299.22 158.292 294.232 157.618 285.172 155.365C276.112 153.112 252.992 149.762 249.474 149.027L245.968 148.292L244.63 156.449C244.63 156.449 261.498 161.437 273.124 165.69C284.75 169.943 294.099 174.123 304.955 171.22" stroke="#263238" stroke-linecap="round" stroke-linejoin="round"/>
<path d="M245.968 148.28L245.654 146.726C245.145 144.252 243.883 141.996 242.04 140.268C240.303 139.325 238.702 138.149 237.281 136.775L237.04 136.534C237.04 136.534 234.703 136.714 235.655 138.654C235.87 139.222 236.232 139.723 236.704 140.106C237.176 140.489 237.741 140.74 238.341 140.835L239.546 144.015L227.257 142.473C227.257 142.473 225.353 142.811 226.546 144.148C227.739 145.485 234.606 146.642 234.606 146.642L225.57 146.377C225.57 146.377 224.366 147.148 224.619 148.088C224.872 149.027 234.257 149.798 234.257 149.798L226.088 150.292C225.723 150.464 225.425 150.753 225.242 151.113C225.059 151.473 225 151.884 225.076 152.28C225.221 153.051 226.968 153.112 227.727 152.979C228.486 152.847 233.751 153.063 233.751 153.063L227.474 154.979C227.457 155.319 227.522 155.658 227.662 155.968C227.803 156.278 228.015 156.55 228.281 156.762C229.06 157.166 229.935 157.349 230.811 157.292L238.739 155.859C238.739 155.859 238.932 156.919 244.691 156.437L245.968 148.28Z" fill="white" stroke="#263238" stroke-linecap="round" stroke-linejoin="round"/>
<path d="M239.522 144.015C239.522 144.015 237.751 149.063 240.209 150.606L239.522 144.015Z" fill="white"/>
<path d="M239.522 144.015C239.522 144.015 237.751 149.063 240.209 150.606" stroke="#263238" stroke-linecap="round" stroke-linejoin="round"/>
<path d="M248.004 196.087H179.571V104.438H227.631L248.004 123.1V196.087Z" fill="white" stroke="#263238" stroke-linecap="round" stroke-linejoin="round"/>
<path d="M227.63 104.438V123.1H248.004L227.63 104.438Z" fill="#263238" stroke="#263238" stroke-linecap="round" stroke-linejoin="round"/>
<path d="M255.041 196.953C262.056 189.53 261.725 177.825 254.302 170.81C246.878 163.795 235.173 164.126 228.158 171.549C221.143 178.973 221.474 190.678 228.897 197.693C236.321 204.708 248.026 204.377 255.041 196.953Z" fill="#263238"/>
<path d="M251.558 182.111H243.727V174.292H239.462V182.111H231.643V186.388H239.462V194.207H243.727V186.388H251.558V182.111Z" fill="white"/>
<path d="M281.521 299.953H149.848L134.668 198.472H281.521V299.953Z" fill="#263238" stroke="#263238" stroke-linecap="round" stroke-linejoin="round"/>
<path d="M212.908 198.472L210.932 192.786C210.402 191.262 209.41 189.941 208.096 189.007C206.781 188.072 205.208 187.569 203.595 187.569H150.318V299.953H282.003L297.172 198.472H212.908Z" fill="#AB8AF1" stroke="#263238" stroke-linecap="round" stroke-linejoin="round"/>
<path d="M69.0063 348.868C69.0063 348.868 71.934 355.434 74.8496 357.627C77.7652 359.82 83.2832 359.458 83.982 363.109C84.6808 366.759 81.7893 367.121 79.2351 367.121C76.6809 367.121 68.6449 367.121 67.1871 366.759C62.5828 365.143 58.2672 362.801 54.4041 359.82C50.0307 356.205 48.9343 356.53 52.2234 349.591C55.5125 342.651 69.0063 348.868 69.0063 348.868Z" fill="#AB8AF1" stroke="#263238" stroke-miterlimit="10"/>
<path d="M84.0783 363.807C80.5362 364.434 73.5965 365.289 67.4882 363.807C61.3798 362.326 54.1631 356.832 50.5125 353.82C49.7535 356.663 51.1872 357.181 54.404 359.844C58.2711 362.803 62.5866 365.126 67.187 366.723C68.6448 367.085 76.6808 367.084 79.235 367.084C81.7892 367.084 84.3072 366.795 84.0783 363.807Z" fill="white" stroke="#263238" stroke-miterlimit="10"/>
<path d="M79.9579 229.617C79.9579 229.617 74.946 271.664 70.934 282.254C66.922 292.845 60.8739 299.543 59.4161 307.555C57.9583 315.567 52.1873 349.579 52.1873 349.579C52.1873 349.579 55.8017 353.193 58.392 352.868C60.9823 352.543 68.6087 353.603 70.8014 349.579C72.9942 345.555 73.5364 339.049 73.8978 337.952C74.2592 336.856 89.5602 307.254 93.259 295.567C96.9577 283.881 108.668 235.616 108.307 229.773" fill="#263238"/>
<path d="M79.9579 229.617C79.9579 229.617 74.946 271.664 70.934 282.254C66.922 292.845 60.8739 299.543 59.4161 307.555C57.9583 315.567 52.1873 349.579 52.1873 349.579C52.1873 349.579 55.8017 353.193 58.392 352.868C60.9823 352.543 68.6087 353.603 70.8014 349.579C72.9942 345.555 73.5364 339.049 73.8978 337.952C74.2592 336.856 89.5602 307.254 93.259 295.567C96.9577 283.881 108.668 235.616 108.307 229.773" stroke="#263238" stroke-miterlimit="10"/>
<path d="M77.2832 200.774C77.2832 200.774 72.8134 213.918 74.4881 225.665C76.1627 237.412 89.3192 243.291 98.5841 241.604C107.849 239.918 110.331 233.496 110.331 222.327C110.301 215.416 109.822 208.514 108.897 201.665C98.564 204.968 87.4139 204.654 77.2832 200.774Z" fill="#263238" stroke="#263238" stroke-miterlimit="10"/>
<path d="M80.3676 115.184C80.3676 115.184 71.934 130.847 71.4159 143.425C70.8978 156.003 77.2833 200.774 77.2833 200.774C77.2833 200.774 79.8013 205.81 91.8373 206.364C103.873 206.918 108.897 202.749 108.897 202.749C108.897 202.749 113.09 174.22 113.09 159.112C113.09 144.003 101.343 121.63 101.343 121.63L80.3676 115.184Z" fill="#AB8AF1" stroke="#263238" stroke-miterlimit="10"/>
<path d="M73.8857 150.015C73.8857 150.015 74.6206 158.871 85.3313 159.979" stroke="#263238" stroke-linecap="round" stroke-linejoin="round"/>
<path d="M76.8375 161.822C80.7411 164.125 85.3542 164.914 89.8011 164.039" stroke="#263238" stroke-linecap="round" stroke-linejoin="round"/>
<path d="M80.8977 201.304C80.8977 201.304 91.5963 192.087 97.1384 183.593" stroke="#263238" stroke-linecap="round" stroke-linejoin="round"/>
<path d="M96.03 192.448C96.03 192.448 86.8012 202.087 83.4759 203.159" stroke="#263238" stroke-linecap="round" stroke-linejoin="round"/>
<path d="M86.512 94.4378C86.512 94.4378 86.2349 102.269 85.4036 107.582C84.5723 112.895 84.2831 115.136 84.2831 115.136L99.6684 121.004C99.6684 121.004 98.2588 110.377 100.223 105.895C101.329 103.503 102.084 100.962 102.464 98.3534C102.464 98.3534 97.4275 86.0403 92.1143 85.1969C86.8011 84.3536 86.512 94.4378 86.512 94.4378Z" fill="white" stroke="#263238" stroke-miterlimit="10"/>
<path d="M107.5 71.8236C107.5 71.8236 110.295 69.3056 106.656 60.9804C103.018 52.6552 85.4036 53.1492 77.0061 60.6913C68.6086 68.2333 65.8135 81.6789 73.0905 90.3414C80.3675 99.004 89.03 100.136 94.6324 96.7751C100.235 93.4137 100.777 86.9921 100.777 84.4741C100.777 81.956 98.8251 75.7995 101.62 74.1248C103.442 73.0441 105.428 72.2669 107.5 71.8236Z" fill="#263238" stroke="#263238" stroke-miterlimit="10"/>
<path d="M78.6808 115.739L103.584 125.811L102.187 117.703L80.0784 108.462L78.6808 115.739Z" fill="white" stroke="#263238" stroke-miterlimit="10"/>
<path d="M110.632 358.723C110.632 358.723 117.933 363.109 121.945 364.928C125.957 366.747 126.331 366.386 126.331 368.94C126.331 371.494 126.692 371.868 120.114 371.868C113.536 371.868 94.5601 372.229 92.7408 370.771C90.9216 369.313 108.078 357.627 110.632 358.723Z" fill="#AB8AF1" stroke="#263238" stroke-miterlimit="10"/>
<path d="M120.114 371.868C126.271 371.868 126.343 371.542 126.331 369.458C107.62 370.024 98.4998 369.313 94.0662 368.494C92.8614 369.615 92.3192 370.482 92.7409 370.819C94.6204 372.229 113.548 371.868 120.114 371.868Z" fill="white" stroke="#263238" stroke-miterlimit="10"/>
<path d="M106.668 69.8598C106.668 69.8598 93.524 76.0164 93.524 78.2934C93.524 80.5705 99.1143 81.3657 97.4396 84.1729C96.6435 85.5646 95.6982 86.8654 94.6204 88.0523C94.6204 88.0523 96.8492 91.9679 94.8975 92.5221C92.9457 93.0764 92.1023 93.0764 90.0782 90.2812C88.0542 87.4861 86.1626 86.0885 85.6084 90.8475C85.0542 95.6064 87.2831 96.4377 88.9578 96.7148C90.2584 96.8695 91.5728 96.8695 92.8734 96.7148C92.8734 96.7148 95.6806 103.426 97.6324 104.269C99.5841 105.112 109.102 106.233 111.054 103.992C113.006 101.751 111.62 91.6788 111.62 91.6788C111.62 91.6788 114.415 91.1246 114.415 88.6065C114.415 86.0885 109.945 82.45 109.945 82.45C109.945 82.45 111.054 80.7753 110.223 76.8597C109.592 74.284 108.376 71.8885 106.668 69.8598Z" fill="white" stroke="#263238" stroke-miterlimit="10"/>
<path d="M107.042 83.6909C107.042 84.5704 106.692 85.2933 106.247 85.2933C105.801 85.2933 105.452 84.5704 105.452 83.6909C105.452 82.8114 105.801 82.1006 106.247 82.1006C106.692 82.1006 107.042 82.8114 107.042 83.6909Z" fill="#263238"/>
<path d="M103.5 80.8356C103.5 80.8356 103.909 78.426 107.536 78.8958" stroke="#263238" stroke-linecap="round" stroke-linejoin="round"/>
<path d="M108.235 95.3173C106.881 95.1997 105.628 94.5497 104.753 93.5101" stroke="#263238" stroke-linecap="round" stroke-linejoin="round"/>
<path d="M77.7531 230.339C77.7531 230.339 80.3073 255.532 83.5844 266.484C86.8614 277.435 86.8735 282.146 85.7771 291.676C84.6808 301.206 81.0302 309.929 83.5844 318.688C86.1386 327.447 91.259 364.928 91.259 366.386C91.259 367.844 90.8855 370 92.7168 370.771C94.5481 371.542 110.235 360.916 110.608 358.723C110.982 356.53 108.054 349.964 108.054 344.121C108.054 338.278 109.873 304.085 109.873 287.664C109.873 271.242 111.704 239.833 105.861 225.231" fill="#263238"/>
<path d="M77.7531 230.339C77.7531 230.339 80.3073 255.532 83.5844 266.484C86.8614 277.435 86.8735 282.146 85.7771 291.676C84.6808 301.206 81.0302 309.929 83.5844 318.688C86.1386 327.447 91.259 364.928 91.259 366.386C91.259 367.844 90.8855 370 92.7168 370.771C94.5481 371.542 110.235 360.916 110.608 358.723C110.982 356.53 108.054 349.964 108.054 344.121C108.054 338.278 109.873 304.085 109.873 287.664C109.873 271.242 111.704 239.833 105.861 225.231" stroke="#263238" stroke-miterlimit="10"/>
<path d="M79.8495 246.243C79.8495 246.243 81.5723 258.496 83.6085 266.484C85.6446 274.471 87.7289 278.218 85.247 288.17C82.7651 298.122 81.9217 301.423 83.1627 306.435" stroke="white" stroke-linecap="round" stroke-linejoin="round"/>
<path d="M303.123 351.591C303.123 351.591 288.184 356.579 284.63 357.615C281.076 358.651 277.871 359.398 281.076 362.952C284.28 366.506 299.931 366.868 304.545 366.868C309.159 366.868 312.376 369.35 313.437 366.506C314.497 363.663 314.509 355.832 314.509 355.832L303.123 351.591Z" fill="#AB8AF1" stroke="#263238" stroke-miterlimit="10"/>
<path d="M313.894 364.807C309.919 364.687 302.413 364.313 293.533 363.169C288.869 362.721 284.288 361.635 279.919 359.94C279.594 360.651 279.919 361.603 281.124 362.976C284.329 366.53 299.979 366.892 304.593 366.892C309.208 366.892 312.425 369.374 313.485 366.53C313.674 365.97 313.811 365.393 313.894 364.807Z" fill="white" stroke="#263238" stroke-miterlimit="10"/>
<path d="M348.291 355.145C348.291 355.145 336.906 363.687 333.713 365.458C330.521 367.229 329.798 370.084 332.641 370.084C335.484 370.084 358.605 370.795 361.809 368.663C365.014 366.53 360.388 356.217 360.388 356.217C360.388 356.217 351.846 355.145 348.291 355.145Z" fill="#AB8AF1" stroke="#263238" stroke-miterlimit="10"/>
<path d="M361.809 368.663C362.713 368.06 363.014 366.795 362.918 365.301C352.582 367.121 342.074 367.767 331.593 367.229C330.46 368.687 330.689 370.084 332.689 370.084C335.484 370.084 358.605 370.795 361.809 368.663Z" fill="white" stroke="#263238" stroke-miterlimit="10"/>
<path d="M320.906 190.063C320.906 190.063 305.244 244.472 304.545 257.279C303.846 270.086 303.123 338.085 303.123 341.278V351.591L314.509 355.856C314.509 355.856 319.846 315.603 320.906 306.001C321.967 296.399 322.689 285.724 324.111 280.7C325.533 275.676 328.376 255.399 329.448 251.183C330.521 246.966 333.002 229.135 332.292 208.858C331.581 188.581 323.4 185.075 320.906 190.063Z" fill="#263238" stroke="#263238" stroke-miterlimit="10"/>
<path d="M319.135 186.147C319.135 186.147 319.485 202.147 319.846 217.797C320.208 233.448 319.135 257.279 322.689 274.351C326.244 291.423 340.111 328.483 341.533 334.519C342.954 340.555 347.942 356.579 347.942 356.579C347.942 356.579 355.761 357.289 360.388 356.217C360.388 356.217 355.761 321.651 355.05 308.134C354.34 294.616 345.798 275.411 344.026 270.785C342.255 266.158 347.629 229.183 347.629 229.183C347.629 229.183 356.159 213.52 354.026 203.569C352.812 197.688 349.978 192.263 345.846 187.906C345.846 187.906 324.46 190.822 319.135 186.147Z" fill="#263238" stroke="#263238" stroke-miterlimit="10"/>
<path d="M320.28 208.448C320.28 208.448 319.87 249.556 321.485 261.182C323.099 272.809 324.798 277.387 324.798 277.387" stroke="white" stroke-linecap="round" stroke-linejoin="round"/>
<path d="M345.087 118.534C345.087 118.534 340.822 115.341 331.581 122.148C322.34 128.955 311.665 147.389 312.376 154.509C313.087 161.63 319.135 182.605 319.135 186.159C319.135 189.714 320.195 188.292 324.46 189.714C328.725 191.135 340.822 190.786 343.665 189.364C346.508 187.942 345.087 178.69 345.798 170.87C346.508 163.051 351.135 147.75 350.785 136.726C350.436 125.702 346.508 119.992 345.087 118.534Z" fill="#AB8AF1" stroke="#263238" stroke-miterlimit="10"/>
<path d="M327.665 78.0284C327.665 78.0284 323.4 83.3656 323.4 86.9198C323.4 90.474 322.605 94.1486 320.473 95.8956C318.34 97.6426 318.412 99.3654 320.196 99.7269L321.979 100.076C321.979 100.076 322.979 107.835 324.388 110.691C325.798 113.546 330.858 111.1 331.918 110.691C332.978 110.281 331.569 121.004 331.569 122.076C331.569 123.148 342.231 121.714 343.617 121.714C345.002 121.714 344.328 108.907 345.749 105.004C347.171 101.1 351.773 96.1125 346.111 87.5704C340.448 79.0284 330.87 71.9803 327.665 78.0284Z" fill="white" stroke="#263238" stroke-miterlimit="10"/>
<path d="M326.111 93.8835C326.111 94.7631 326.46 95.4739 326.906 95.4739C327.352 95.4739 327.701 94.7631 327.701 93.8835C327.701 93.004 327.352 92.2812 326.906 92.2812C326.46 92.2812 326.111 93.004 326.111 93.8835Z" fill="#263238"/>
<path d="M323.942 102.871C323.942 102.871 325.147 104.257 327.87 102.402" stroke="#263238" stroke-linecap="round" stroke-linejoin="round"/>
<path d="M324.87 89.4258C324.87 89.4258 326.942 86.8837 329.484 90.1246" stroke="#263238" stroke-linecap="round" stroke-linejoin="round"/>
<path d="M337.761 117.907C337.761 117.907 328.533 121.221 327.051 123.437C325.569 125.654 324.473 129.341 326.689 129.341C328.906 129.341 338.484 122.895 341.075 122.329C343.665 121.763 341.075 114.582 337.761 117.907Z" fill="white" stroke="#263238" stroke-miterlimit="10"/>
<path d="M327.665 78.0284C328.546 82.7861 330.49 87.2834 333.352 91.1848C337.978 97.2088 342.605 95.8113 341.533 100.823C340.46 105.835 332.641 112.871 335.846 120.751C339.051 128.63 346.159 129.991 347.581 133.196C349.002 136.401 352.207 137.461 348.653 150.268C345.099 163.075 339.761 173.376 344.376 185.473C348.99 197.569 361.099 200.762 370.339 196.497C379.58 192.232 373.893 178.714 376.038 170.533C378.183 162.352 396.664 155.955 390.255 133.184C383.845 110.413 368.918 104.377 364.954 96.5462C360.99 88.715 361.761 75.5706 353.581 70.2333C345.4 64.896 336.147 69.5225 332.954 70.2333C329.762 70.9441 327.966 65.6069 321.569 68.1008C315.171 70.5947 311.352 82.5584 322.774 85.0644C323.972 82.4465 325.629 80.0638 327.665 78.0284Z" fill="#263238" stroke="#263238" stroke-miterlimit="10"/>
<path d="M339.424 95.0643C341.655 97.3772 344.326 99.2205 347.279 100.486C360.532 106.293 369.701 114.606 369.701 128.714C369.701 142.823 356.448 152.389 355.99 164.437C355.532 176.485 362.219 185.605 369.243 181.87C376.267 178.135 372.99 170.666 370.448 170.666" stroke="white" stroke-linecap="round" stroke-linejoin="round"/>
<path d="M333.171 81.7994C333.444 84.2866 334.145 86.7078 335.243 88.9559" stroke="white" stroke-linecap="round" stroke-linejoin="round"/>
<path d="M376.424 121.148C379.1 127.049 380.488 133.452 380.496 139.931C380.074 154.461 362.641 161.112 360.556 169.834C358.689 177.678 364.303 184.774 369.279 181.882" stroke="white" stroke-linecap="round" stroke-linejoin="round"/>
<path d="M371.363 111.691C372.536 113.446 373.598 115.273 374.544 117.16" stroke="white" stroke-linecap="round" stroke-linejoin="round"/>
<path d="M351.846 139.931C353.531 134.358 353.383 128.391 351.424 122.907C348.099 114.184 344.364 110.028 344.364 105.462" stroke="white" stroke-linecap="round" stroke-linejoin="round"/>
<path d="M327.665 78.0284C327.04 76.9416 326.15 76.0311 325.078 75.3821C324.005 74.7331 322.785 74.3668 321.533 74.3176C317.376 74.3176 317.786 79.7151 322.352 80.5464" stroke="white" stroke-linecap="round" stroke-linejoin="round"/>
<path d="M83.6085 130.317C83.6085 130.317 78.5001 137.618 79.5965 144.919C80.6929 152.22 97.1264 188.726 98.9456 191.28C100.765 193.834 112.813 196.4 113.909 186.171C115.006 175.943 100.777 146.015 98.5842 138.714C96.3914 131.413 91.6445 129.955 91.6445 129.955" fill="#AB8AF1"/>
<path d="M83.6085 130.317C83.6085 130.317 78.5001 137.618 79.5965 144.919C80.6929 152.22 97.1264 188.726 98.9456 191.28C100.765 193.834 112.813 196.4 113.909 186.171C115.006 175.943 100.777 146.015 98.5842 138.714C96.3914 131.413 91.6445 129.955 91.6445 129.955" stroke="#263238" stroke-miterlimit="10"/>
<path d="M111.198 178.533C111.198 178.533 121.897 179.894 129.391 184.424C136.885 188.955 160.716 197.436 160.716 197.436L159.005 204.508C159.005 204.508 132.776 201.484 121.656 199.436C110.536 197.388 103.319 196.412 99.2107 190.509" fill="#AB8AF1"/>
<path d="M111.198 178.533C111.198 178.533 121.897 179.894 129.391 184.424C136.885 188.955 160.716 197.436 160.716 197.436L159.005 204.508C159.005 204.508 132.776 201.484 121.656 199.436C110.536 197.388 103.319 196.412 99.2107 190.509" stroke="#263238" stroke-miterlimit="10"/>
<path d="M182.39 206.4L172.655 203.352L172.764 202.328C172.764 202.328 181.065 203.93 181.969 204.039C182.872 204.147 183.173 203.701 183.173 203.135C183.114 202.706 182.915 202.308 182.607 202.003L168.993 197.111L176.812 195.641C177.945 194.738 176.691 193.834 176.691 193.834L167.511 194.051L160.74 197.436L159.029 204.508C159.029 204.508 171.595 215.352 172.161 215.701C172.728 216.05 173.065 216.605 173.969 216.038C174.872 215.472 174.535 214.834 174.535 214.834L170.523 210.713L177.438 212.749C178.222 212.978 178.342 213.207 178.908 212.978C179.475 212.749 179.583 211.28 179.583 211.28L171.535 207.545L171.884 206.749C171.884 206.749 180.812 208.894 181.366 208.894C181.92 208.894 182.27 208.894 182.728 207.882C182.871 207.638 182.916 207.349 182.853 207.074C182.79 206.799 182.625 206.558 182.39 206.4Z" fill="white" stroke="#263238" stroke-linecap="round" stroke-linejoin="round"/>
<path d="M347.4 133.473C347.4 133.473 342.46 126.618 335.496 131.064C328.533 135.509 303.28 158.907 303.28 158.907C303.28 158.907 298.172 164.931 305.69 169.34C313.208 173.75 344.051 146.329 347.388 144.039" fill="#AB8AF1"/>
<path d="M347.4 133.473C347.4 133.473 342.46 126.618 335.496 131.064C328.533 135.509 303.28 158.907 303.28 158.907C303.28 158.907 298.172 164.931 305.69 169.34C313.208 173.75 344.051 146.329 347.388 144.039" stroke="#263238" stroke-miterlimit="10"/>
<path d="M308.376 159.015C308.376 159.015 304.629 156.666 296.111 155.172C287.594 153.678 258.329 137.377 258.329 137.377L253.51 143.401C253.51 143.401 274.1 158.545 284.835 165.027C295.569 171.509 300.364 173.22 303.81 172.87C307.256 172.521 315.292 164.991 315.292 164.991" fill="#AB8AF1"/>
<path d="M308.376 159.015C308.376 159.015 304.629 156.666 296.111 155.172C287.594 153.678 258.329 137.377 258.329 137.377L253.51 143.401C253.51 143.401 274.1 158.545 284.835 165.027C295.569 171.509 300.364 173.22 303.81 172.87C307.256 172.521 315.292 164.991 315.292 164.991" stroke="#263238" stroke-miterlimit="10"/>
<path d="M238.124 124.329L245.907 130.534L246.666 129.895C246.666 129.895 240.859 124.064 240.281 123.389C239.703 122.714 239.871 122.184 240.281 121.883C240.656 121.707 241.078 121.652 241.486 121.727L252.835 130.076L249.775 122.955C249.895 121.546 251.305 122.064 251.305 122.064L256.124 129.606L257.618 137.028L253.883 143.738C253.883 143.738 236.691 137.895 236.112 137.63C235.534 137.365 234.908 137.389 234.847 136.341C234.787 135.293 235.546 135.208 235.546 135.208L241.064 136.281L235.715 131.787C235.1 131.269 234.859 131.305 234.727 130.714C234.594 130.124 235.739 129.245 235.739 129.245L243.136 133.714L243.594 133.003C243.594 133.003 236.98 126.979 236.667 126.486C236.353 125.992 236.173 125.751 236.751 124.835C236.871 124.59 237.081 124.401 237.336 124.307C237.592 124.213 237.874 124.221 238.124 124.329Z" fill="white" stroke="#263238" stroke-linecap="round" stroke-linejoin="round"/>
</svg>
